<svg width="136" height="100" viewBox="0 0 136 100" fill="none" xmlns="http://www.w3.org/2000/svg">
<g clip-path="url(#clip0_694_1338)">
<path d="M90.7303 20.5572C92.0468 20.5572 93.114 19.49 93.114 18.1736C93.114 16.8571 92.0468 15.7899 90.7303 15.7899C89.4139 15.7899 88.3467 16.8571 88.3467 18.1736C88.3467 19.49 89.4139 20.5572 90.7303 20.5572Z" fill="#283483"/>
<path d="M57.8072 98.9221V84.8125C57.8062 84.6678 57.8339 84.5245 57.8885 84.3906C57.9408 84.2613 58.0184 84.1438 58.117 84.045C58.2145 83.9474 58.3302 83.8698 58.4576 83.8165C58.593 83.7611 58.7381 83.7334 58.8844 83.7352H62.0152C62.494 83.7342 62.9707 83.799 63.4318 83.928C63.8827 84.0541 64.3151 84.2389 64.7179 84.4774C65.1171 84.7143 65.4858 84.9993 65.8154 85.3261C66.1449 85.6517 66.4303 86.0191 66.6642 86.4188C66.8998 86.8231 67.0841 87.2551 67.213 87.7049C67.3455 88.1654 67.4123 88.6423 67.4113 89.1215C67.4042 90.5499 66.8328 91.9178 65.8218 92.9269C64.8107 93.936 63.4418 94.5046 62.0133 94.509H59.9598V98.9209C59.9598 99.2067 59.8463 99.4809 59.6441 99.683C59.442 99.8852 59.1678 99.9987 58.8819 99.9987C58.5961 99.9987 58.3219 99.8852 58.1198 99.683C57.9176 99.4809 57.8041 99.2067 57.8041 98.9209L57.8072 98.9221ZM59.9629 85.8897V92.357H62.0164C62.4446 92.3596 62.8688 92.2732 63.2618 92.1032C63.6441 91.9388 63.9923 91.7044 64.2886 91.4121C64.5867 91.1164 64.8254 90.7665 64.9919 90.3811C65.1631 89.981 65.2513 89.5504 65.2513 89.1153C65.2513 88.6802 65.1631 88.2497 64.9919 87.8496C64.6586 87.0752 64.037 86.4609 63.2587 86.1367C62.8663 85.9718 62.4446 85.8879 62.0189 85.8903L59.9629 85.8897Z" fill="#B4D035"/>
<path d="M70.1201 84.8125C70.1201 84.5266 70.2337 84.2525 70.4358 84.0503C70.638 83.8482 70.9121 83.7346 71.198 83.7346C71.4838 83.7346 71.758 83.8482 71.9601 84.0503C72.1623 84.2525 72.2758 84.5266 72.2758 84.8125V97.8442H79.8197C80.1056 97.8442 80.3798 97.9578 80.5819 98.1599C80.784 98.3621 80.8976 98.6362 80.8976 98.9221C80.8976 99.208 80.784 99.4822 80.5819 99.6844C80.3798 99.8865 80.1056 100 79.8197 100H71.1968C71.0504 100.002 70.9053 99.9743 70.7699 99.9187C70.513 99.8109 70.3086 99.6066 70.2008 99.3496C70.1452 99.2143 70.1175 99.0691 70.1195 98.9228L70.1201 84.8125Z" fill="#B4D035"/>
<path d="M83.7451 98.4342L89.1732 84.4669C89.2457 84.2524 89.3839 84.0663 89.5683 83.9349C89.7526 83.8035 89.9736 83.7336 90.2 83.7351C90.4272 83.7299 90.65 83.7984 90.8351 83.9303C91.0202 84.0622 91.1576 84.2504 91.2268 84.4669L96.6753 98.4854C96.7301 98.6246 96.7577 98.7731 96.7565 98.9227C96.7568 99.0643 96.7291 99.2044 96.675 99.3352C96.621 99.466 96.5417 99.5849 96.4416 99.685C96.3415 99.785 96.2226 99.8644 96.0918 99.9184C95.961 99.9725 95.8209 100 95.6793 99.9999C95.5389 100.003 95.3994 99.9763 95.2699 99.922C95.1403 99.8677 95.0236 99.7868 94.9273 99.6846C94.8243 99.5858 94.7407 99.4685 94.6809 99.339L92.8005 94.5108H87.5959L85.705 99.339C85.6449 99.4685 85.5614 99.5856 85.4586 99.6846C85.3598 99.7865 85.2412 99.8671 85.11 99.9213C84.9789 99.9756 84.838 100.002 84.6961 99.9999C84.555 100.002 84.4149 99.9758 84.2846 99.9216C84.1543 99.8673 84.0367 99.7866 83.9391 99.6846C83.839 99.5848 83.7601 99.4659 83.7072 99.3348C83.6543 99.2038 83.6284 99.0633 83.6312 98.922C83.6332 98.7531 83.6721 98.5866 83.7451 98.4342ZM91.969 92.355L90.2 87.7911L88.4311 92.355H91.969Z" fill="#B4D035"/>
<path d="M111.151 96.3401C111.294 96.3389 111.436 96.3682 111.568 96.4263C111.694 96.4822 111.809 96.5595 111.908 96.6549C112.008 96.752 112.087 96.8677 112.142 96.9955C112.199 97.1286 112.229 97.2722 112.228 97.4173C112.226 97.5619 112.196 97.7048 112.138 97.8375C112.081 97.9701 111.997 98.0899 111.892 98.1897C110.452 99.3709 108.643 100.011 106.78 99.9993C104.623 99.9993 102.555 99.1425 101.03 97.6174C99.5045 96.0923 98.6477 94.0238 98.6477 91.8669C98.6477 89.7101 99.5045 87.6416 101.03 86.1164C102.555 84.5913 104.623 83.7345 106.78 83.7345C108.689 83.7286 110.538 84.4024 111.995 85.6353C112.091 85.7321 112.166 85.8478 112.215 85.975C112.264 86.1022 112.286 86.2382 112.28 86.3744C112.282 86.5207 112.254 86.6658 112.198 86.8012C112.145 86.9286 112.068 87.0442 111.97 87.1418C111.871 87.2404 111.754 87.3181 111.624 87.3704C111.43 87.4507 111.216 87.4722 111.009 87.4325C110.802 87.3928 110.611 87.2935 110.46 87.1468C109.949 86.7424 109.373 86.4264 108.757 86.2118C108.121 85.9924 107.453 85.8825 106.78 85.8866C105.826 85.8887 104.887 86.1191 104.04 86.5586C103.194 86.9981 102.465 87.6338 101.914 88.4126C101.364 89.1915 101.008 90.0908 100.876 91.0354C100.744 91.98 100.841 92.9425 101.157 93.8423C101.473 94.7421 102 95.5531 102.694 96.2075C103.388 96.8619 104.228 97.3406 105.145 97.6037C106.062 97.8668 107.028 97.9066 107.964 97.7198C108.899 97.533 109.776 97.1249 110.521 96.5298C110.708 96.4059 110.927 96.3399 111.151 96.3401Z" fill="#B4D035"/>
<path d="M125.525 97.8449C125.811 97.8449 126.085 97.9585 126.287 98.1607C126.49 98.3628 126.603 98.637 126.603 98.9228C126.603 99.2087 126.49 99.4828 126.287 99.685C126.085 99.8871 125.811 100.001 125.525 100.001H116.122C115.976 100.003 115.83 99.9749 115.695 99.9193C115.438 99.8115 115.234 99.6072 115.126 99.3503C115.07 99.2149 115.043 99.0697 115.045 98.9234V84.8138C115.044 84.6692 115.071 84.5258 115.126 84.3919C115.178 84.2625 115.256 84.145 115.354 84.0463C115.452 83.9485 115.568 83.8709 115.695 83.8178C115.83 83.7624 115.976 83.7347 116.122 83.7365H125.525C125.811 83.7365 126.085 83.8501 126.287 84.0522C126.49 84.2544 126.603 84.5285 126.603 84.8144C126.603 85.1003 126.49 85.3744 126.287 85.5766C126.085 85.7787 125.811 85.8923 125.525 85.8923H117.2V90.7919H123.174C123.46 90.7919 123.734 90.9055 123.936 91.1077C124.139 91.3098 124.252 91.5839 124.252 91.8698C124.252 92.1557 124.139 92.4298 123.936 92.632C123.734 92.8341 123.46 92.9477 123.174 92.9477H117.2V97.8474L125.525 97.8449Z" fill="#B4D035"/>
<path d="M100.75 38.7085C100.477 38.7082 100.212 38.6172 99.9973 38.45C99.7822 38.2827 99.6288 38.0486 99.5614 37.7846C98.2697 32.6453 96.1884 27.7375 93.3917 23.2364C93.3064 23.0997 93.2489 22.9475 93.2224 22.7886C93.1959 22.6297 93.2009 22.4671 93.2373 22.3101C93.2736 22.1532 93.3406 22.0049 93.4342 21.8738C93.5278 21.7427 93.6464 21.6313 93.7831 21.546C93.9198 21.4607 94.0719 21.4032 94.2309 21.3767C94.3898 21.3502 94.5524 21.3553 94.7094 21.3916C94.8663 21.428 95.0146 21.4949 95.1457 21.5885C95.2769 21.6822 95.3883 21.8007 95.4736 21.9374C98.4037 26.6531 100.584 31.7948 101.938 37.1791C101.983 37.3603 101.987 37.5494 101.949 37.7322C101.91 37.915 101.831 38.0867 101.716 38.2341C101.601 38.3815 101.454 38.5008 101.287 38.5829C101.119 38.665 100.935 38.7077 100.748 38.7079L100.75 38.7085Z" fill="#B4D035"/>
<path d="M14.6683 41.503C14.4871 41.5026 14.3082 41.4621 14.1445 41.3844C13.9807 41.3067 13.8362 41.1938 13.7213 41.0537C13.6064 40.9135 13.5239 40.7497 13.4797 40.574C13.4356 40.3982 13.4309 40.2149 13.466 40.0371C15.7036 28.781 21.38 18.5794 29.4487 11.3121C33.3374 7.78258 37.8178 4.96618 42.6843 2.99214C47.5586 1.0191 52.7674 0.00383205 58.0258 0.00183105C69.041 0.00183105 79.7064 4.50179 88.0522 12.6733C88.2848 12.9009 88.4174 13.2116 88.4208 13.537C88.4243 13.8624 88.2984 14.1758 88.0707 14.4084C87.8431 14.6409 87.5324 14.7735 87.207 14.7769C86.8816 14.7804 86.5682 14.6545 86.3357 14.4268C78.4518 6.7068 68.3956 2.45505 58.0258 2.45505C37.9854 2.45505 20.2578 18.4624 15.873 40.5193C15.8167 40.7972 15.6659 41.047 15.4463 41.2263C15.2267 41.4056 14.9518 41.5034 14.6683 41.503Z" fill="#B4D035"/>
<path d="M133.765 45.6297C134.767 46.8106 135.301 48.3183 135.264 49.8667C135.322 51.3122 134.82 52.7243 133.862 53.8086C133.396 54.3153 132.825 54.7147 132.189 54.9792C131.554 55.2437 130.868 55.3669 130.18 55.3404C128.906 55.409 127.652 55.0025 126.66 54.1997C126.23 53.8239 125.89 53.3565 125.664 52.8321C125.439 52.3076 125.333 51.7393 125.356 51.1688C125.354 50.1456 125.617 49.1394 126.12 48.2483C126.622 47.3572 127.348 46.6117 128.224 46.0843C127.967 46.0335 127.704 46.0116 127.442 46.019C127.09 46.0081 126.738 46.0522 126.399 46.1496C124.747 46.4103 123.346 47.4098 122.195 49.1479C121.098 50.7169 120.498 52.5788 120.47 54.4929V71.7672C120.47 73.7669 120.959 75.1575 121.937 75.9389C122.812 76.6369 124.148 77.0237 125.945 77.0993C126.12 77.1056 126.285 77.1794 126.407 77.3051C126.529 77.4308 126.597 77.5987 126.598 77.7737V77.7947C126.598 77.8852 126.58 77.9748 126.544 78.0583C126.509 78.1417 126.458 78.2172 126.393 78.2804C126.328 78.3436 126.251 78.3931 126.167 78.426C126.082 78.4589 125.992 78.4746 125.902 78.4722C125.596 78.4619 125.329 78.4438 125.101 78.4179C120.668 78.2874 117.713 78.2221 116.235 78.2221C115.062 78.2221 112.39 78.2874 108.218 78.4179C108.04 78.4405 107.84 78.4572 107.617 78.4678C107.526 78.4713 107.435 78.4564 107.35 78.4239C107.265 78.3914 107.187 78.342 107.121 78.2788C107.056 78.2155 107.003 78.1397 106.968 78.0557C106.932 77.9718 106.914 77.8815 106.914 77.7903V77.7651C106.915 77.5921 106.981 77.426 107.101 77.3008C107.22 77.1755 107.382 77.1005 107.555 77.0912C108.523 77.112 109.461 76.7573 110.173 76.1015C110.781 75.428 111.086 74.2003 111.086 72.4182V51.8863C111.086 49.8878 110.782 48.432 110.173 47.5188C109.866 47.1032 109.465 46.7652 109.004 46.5317C108.543 46.2983 108.033 46.1759 107.516 46.1742C107.351 46.1587 107.197 46.0819 107.086 45.9589C106.975 45.8359 106.913 45.6756 106.914 45.5096C106.914 45.4177 106.932 45.3267 106.969 45.2424C107.006 45.1581 107.059 45.0822 107.127 45.0196C107.194 44.957 107.273 44.9089 107.36 44.8785C107.447 44.848 107.539 44.8358 107.631 44.8426C108.769 44.9321 109.877 44.9766 110.957 44.9762C113.799 45.0194 116.638 44.7906 119.436 44.2932C119.563 44.2687 119.693 44.2725 119.818 44.3044C119.942 44.3363 120.059 44.3954 120.158 44.4774C120.257 44.5595 120.337 44.6626 120.392 44.7792C120.446 44.8958 120.474 45.023 120.474 45.1518V50.126C121.246 48.3248 122.484 46.7613 124.059 45.5958C125.583 44.4588 127.438 43.853 129.34 43.8712C131.291 43.87 132.766 44.4562 133.765 45.6297Z" fill="#283483"/>
<path d="M15.9254 47.5951C12.7757 47.5951 9.69666 48.5291 7.07775 50.279C4.45883 52.0289 2.41761 54.5161 1.21225 57.4261C0.00689519 60.3361 -0.308474 63.5382 0.306011 66.6274C0.920496 69.7166 2.43724 72.5542 4.66445 74.7814C6.89166 77.0086 9.7293 78.5254 12.8185 79.1399C15.9077 79.7544 19.1098 79.439 22.0198 78.2337C24.9298 77.0283 27.417 74.9871 29.1669 72.3682C30.9168 69.7493 31.8508 66.6702 31.8508 63.5205C31.8508 59.2968 30.173 55.2461 27.1864 52.2595C24.1998 49.273 20.1491 47.5951 15.9254 47.5951ZM19.9579 74.6829C18.9835 77.0789 17.6393 78.2771 15.9254 78.2775C14.2501 78.2775 12.9156 77.0696 11.9219 74.654C10.9282 72.2383 10.4315 68.537 10.432 63.5501C10.432 58.5635 10.9286 54.8525 11.9219 52.4172C12.9152 49.9818 14.2497 48.7643 15.9254 48.7647C17.6003 48.7647 18.9348 49.9726 19.9289 52.3882C20.923 54.8039 21.4197 58.5247 21.4189 63.5507C21.4189 68.5758 20.9319 72.2866 19.9579 74.6829Z" fill="#283483"/>
<path d="M75.6924 28.8228C75.0067 29.7337 74.6437 30.8469 74.6607 31.9869C74.6268 32.6522 74.7384 33.317 74.9879 33.9347C75.2374 34.5525 75.6186 35.1084 76.1051 35.5636C77.1532 36.4659 78.5065 36.9335 79.8881 36.8705C80.5391 36.8922 81.1875 36.778 81.7919 36.5352C82.3964 36.2925 82.9437 35.9265 83.3989 35.4607C83.8404 35.0254 84.1897 34.5058 84.4261 33.9327C84.6625 33.3596 84.7811 32.7448 84.7749 32.1248C84.7893 31.0906 84.5657 30.0668 84.1214 29.1327L84.1035 29.0988C83.6567 29.3893 83.1254 29.5215 82.5945 29.4744C82.0637 29.4272 81.564 29.2034 81.1754 28.8387C80.7868 28.474 80.5317 27.9895 80.4509 27.4627C80.3702 26.9359 80.4685 26.3972 80.7301 25.9329C78.9666 25.089 77.0313 24.6658 75.0765 24.6968C73.2445 24.6883 71.4264 25.0147 69.7118 25.6601C68.1989 26.1887 66.8156 27.0327 65.6534 28.1361C64.059 29.6774 62.8968 31.61 62.2831 33.741C61.6405 35.9198 61.3196 39.0035 61.3204 42.9922V51.0837C59.6346 51.4262 57.9297 51.6668 56.215 51.8043C55.9513 51.8248 55.7058 51.9467 55.5301 52.1443C55.3544 52.342 55.2621 52.6001 55.2726 52.8644C55.2831 53.1286 55.3956 53.3785 55.5865 53.5616C55.7774 53.7447 56.0318 53.8466 56.2963 53.8461C56.324 53.8461 56.3517 53.8461 56.3794 53.843C58.0376 53.7101 59.6871 53.4856 61.3204 53.1704V72.088C61.3204 73.9686 60.9993 75.2641 60.3571 75.9745C59.8048 76.5859 58.8809 76.9349 57.5854 77.0216C57.3968 77.0349 57.2209 77.1219 57.096 77.2639C56.971 77.4059 56.907 77.5913 56.9178 77.7801C56.9285 77.969 57.0132 78.146 57.1535 78.2728C57.2938 78.3996 57.4784 78.4661 57.6673 78.4579C61.8289 78.2937 64.5596 78.2116 65.8592 78.2116C67.3723 78.2116 70.6739 78.2803 75.7639 78.4179L76.9471 78.4604C77.0412 78.4638 77.135 78.4486 77.2233 78.4157C77.3115 78.3829 77.3924 78.3329 77.4614 78.2688C77.5303 78.2046 77.586 78.1276 77.6251 78.0419C77.6643 77.9563 77.6862 77.8637 77.6896 77.7696C77.693 77.6755 77.6778 77.5817 77.6449 77.4934C77.612 77.4052 77.5621 77.3243 77.498 77.2553C77.4338 77.1864 77.3567 77.1307 77.2711 77.0916C77.1854 77.0524 77.0929 77.0305 76.9988 77.0271C75.5211 77.0506 74.0711 76.6242 72.8413 75.8045C71.7634 74.9792 71.2247 73.5118 71.2251 71.4025V49.8801C74.3146 48.3689 77.1592 46.4014 79.6633 44.0436C79.7627 43.9519 79.8428 43.8413 79.8992 43.7184C79.9555 43.5954 79.9868 43.4625 79.9914 43.3273C79.9961 43.1921 79.9738 43.0574 79.926 42.9309C79.8781 42.8044 79.8057 42.6886 79.7128 42.5903C79.6199 42.492 79.5084 42.4131 79.3848 42.3582C79.2613 42.3033 79.128 42.2734 78.9927 42.2703C78.8575 42.2673 78.7231 42.2911 78.5971 42.3403C78.4712 42.3896 78.3562 42.4634 78.259 42.5574C76.1512 44.5426 73.7842 46.2333 71.2227 47.5833V36.732C71.1888 34.7336 71.2807 32.735 71.4979 30.7482C71.591 29.6705 71.9451 28.6317 72.5297 27.7216C73.2626 26.5308 74.5006 25.9354 76.2437 25.9354C76.7953 25.9199 77.3445 26.0135 77.8599 26.2107C78.2199 26.3304 78.5255 26.5742 78.7222 26.8987C77.5238 27.1792 76.4558 27.8574 75.6924 28.8228ZM50.0921 32.7777C49.4063 33.6885 49.0433 34.8017 49.0604 35.9417C49.0265 36.6071 49.1381 37.2718 49.3876 37.8896C49.6371 38.5073 50.0183 39.0632 50.5047 39.5184C51.5528 40.4208 52.9062 40.8883 54.2877 40.8254C54.9388 40.847 55.5871 40.7328 56.1916 40.4901C56.796 40.2474 57.3433 39.8814 57.7985 39.4156C58.24 38.9803 58.5893 38.4606 58.8257 37.8875C59.0621 37.3144 59.1807 36.6996 59.1745 36.0797C59.1889 35.0454 58.9653 34.0217 58.521 33.0875C58.4877 33.0192 58.452 32.9533 58.4169 32.8873C57.9793 33.2425 57.4299 33.4309 56.8665 33.4191C56.303 33.4072 55.762 33.1959 55.3397 32.8228C54.9174 32.4496 54.6412 31.9387 54.5601 31.381C54.479 30.8233 54.5983 30.2549 54.8969 29.7769C53.1946 29.0087 51.3441 28.6245 49.4767 28.6516C47.6445 28.6431 45.8262 28.9696 44.1114 29.6149C42.5985 30.1435 41.2152 30.9875 40.0531 32.091C38.4586 33.6322 37.2964 35.5649 36.6827 37.6959C36.0401 39.8746 35.7192 42.9584 35.72 46.9471V48.9944C33.5726 48.2392 31.4744 47.3508 29.4376 46.3343C29.1949 46.2132 28.9141 46.1934 28.6568 46.2793C28.3996 46.3653 28.187 46.5498 28.0659 46.7925C27.9448 47.0352 27.925 47.316 28.0109 47.5732C28.0969 47.8305 28.2815 48.043 28.5241 48.1642C30.8511 49.3255 33.2552 50.3254 35.7194 51.157V72.0874C35.7194 73.968 35.3985 75.2635 34.7567 75.9739C34.2044 76.5853 33.2805 76.9343 31.985 77.021C31.7964 77.0343 31.6206 77.1213 31.4956 77.2633C31.3707 77.4052 31.3066 77.5907 31.3174 77.7795C31.3282 77.9684 31.4128 78.1454 31.5531 78.2722C31.6934 78.399 31.878 78.4655 32.0669 78.4573C36.2286 78.2931 38.9592 78.2109 40.2588 78.2109C41.7719 78.2109 45.0735 78.2797 50.1635 78.4173L51.3467 78.4598C51.4408 78.4631 51.5347 78.4479 51.6229 78.415C51.7111 78.3821 51.792 78.3321 51.8609 78.268C51.9298 78.2038 51.9855 78.1267 52.0246 78.041C52.0637 77.9553 52.0855 77.8628 52.0889 77.7687C52.0922 77.6746 52.077 77.5808 52.0441 77.4925C52.0112 77.4043 51.9612 77.3234 51.897 77.2545C51.8329 77.1856 51.7558 77.13 51.6701 77.0908C51.5844 77.0517 51.4919 77.0299 51.3978 77.0265C49.9201 77.0499 48.4701 76.6235 47.2403 75.8039C46.1624 74.9785 45.6237 73.5112 45.6241 71.4019V53.5067C47.3481 53.7482 49.0835 53.9007 50.8232 53.9637H50.8601C51.1282 53.9638 51.3856 53.8586 51.5769 53.6707C51.7682 53.4828 51.8779 53.2272 51.8826 52.9592C51.8873 52.6911 51.7865 52.4319 51.6019 52.2375C51.4174 52.043 51.1638 51.9288 50.8958 51.9195C49.1314 51.8555 47.3718 51.6957 45.6247 51.4409V40.6868C45.5907 38.6885 45.6824 36.6899 45.8994 34.7031C45.9926 33.6254 46.3466 32.5866 46.9311 31.6764C47.6641 30.4856 48.9021 29.8903 50.6452 29.8903C51.1968 29.8747 51.746 29.9682 52.2613 30.1656C52.6214 30.2852 52.927 30.5291 53.1236 30.8536C51.9247 31.1334 50.856 31.8115 50.0921 32.7771V32.7777Z" fill="#283483"/>
<path d="M105.057 57.2294C105.154 57.2291 105.25 57.2094 105.339 57.1716C105.428 57.1337 105.509 57.0784 105.577 57.0088C105.644 56.9393 105.697 56.857 105.733 56.7667C105.768 56.6764 105.785 56.5799 105.783 56.4829C105.575 46.8009 101.267 41.96 92.8596 41.96C87.7679 41.96 83.6867 43.5992 80.6161 46.8775C77.5455 50.1559 76.0095 54.8903 76.0078 61.0808C76.0078 67.1333 77.4407 71.7074 80.3064 74.803C83.1721 77.8987 87.0353 79.4463 91.8962 79.4459C95.1312 79.552 98.2874 78.4345 100.735 76.3164C102.862 74.462 104.474 72.0899 105.416 69.4297C105.471 69.262 105.464 69.0801 105.397 68.9169C105.33 68.7536 105.206 68.6199 105.049 68.5398C104.892 68.4597 104.711 68.4386 104.539 68.4803C104.368 68.5219 104.217 68.6236 104.114 68.7669C101.859 72.1266 98.9323 73.806 95.3349 73.8052C93.7725 73.8047 92.248 73.3244 90.9674 72.4292C89.4617 71.3147 88.3143 69.7848 87.6661 68.0272C86.7473 65.6138 86.3148 63.0424 86.3935 60.4612C86.3935 58.9945 86.4166 57.9168 86.4625 57.2282L105.057 57.2294ZM92.4469 43.4043C94.0516 43.4043 95.2553 44.585 96.0581 46.9465C96.8685 49.611 97.2327 52.3913 97.1359 55.1747H86.3788C86.6822 51.2878 87.3406 48.3845 88.354 46.4649C89.4315 44.4253 90.7954 43.4051 92.4469 43.4043Z" fill="#283483"/>
</g>
<defs>
<clipPath id="clip0_694_1338">
<rect width="135.265" height="100" fill="white"/>
</clipPath>
</defs>
</svg>
